<svg width="80" height="20" viewBox="0 0 80 20" fill="none" xmlns="http://www.w3.org/2000/svg">
<path fill-rule="evenodd" clip-rule="evenodd" d="M2.52938 9.80298V11.7436C2.52938 13.0062 3.03092 14.217 3.92365 15.1097C4.81637 16.0024 6.02718 16.504 7.28969 16.504C8.5522 16.504 9.763 16.0024 10.6557 15.1097C11.5485 14.217 12.05 13.0062 12.05 11.7436V9.80298H14.5794V11.7436C14.5794 13.677 13.8114 15.5312 12.4443 16.8982C11.0772 18.2653 9.22303 19.0333 7.28969 19.0333C5.35634 19.0333 3.50218 18.2653 2.1351 16.8982C0.768019 15.5312 0 13.677 0 11.7436V9.80298H2.52938Z" fill="url(#paint0_linear)"/>
<path fill-rule="evenodd" clip-rule="evenodd" d="M6.17172 11.6881C6.17172 11.9927 6.2927 12.2848 6.50806 12.5001C6.72342 12.7155 7.0155 12.8365 7.32006 12.8365C7.62462 12.8365 7.9167 12.7155 8.13206 12.5001C8.34741 12.2848 8.4684 11.9927 8.4684 11.6881H10.9978C10.9978 12.6635 10.6103 13.5989 9.9206 14.2887C9.2309 14.9784 8.29545 15.3658 7.32006 15.3658C6.34467 15.3658 5.40922 14.9784 4.71951 14.2887C4.02981 13.5989 3.64233 12.6635 3.64233 11.6881H6.17172Z" fill="url(#paint1_linear)"/>
<path fill-rule="evenodd" clip-rule="evenodd" d="M5.07788 6.49562C5.64975 6.01819 6.01739 5.32699 6.01739 4.38574H8.54678V4.50336C8.54678 5.43856 8.90875 6.08848 9.46493 6.53231C10.0524 7.00114 10.943 7.30212 12.0411 7.30212V9.83151C10.5113 9.83151 9.02226 9.41509 7.88725 8.50936C7.65614 8.32493 7.4432 8.12279 7.25031 7.90403C7.08069 8.09432 6.89648 8.27234 6.69891 8.43729C5.57113 9.37883 4.07841 9.84036 2.52368 9.84036V7.31098C3.59698 7.31098 4.48347 6.99188 5.07788 6.49562Z" fill="url(#paint2_linear)"/>
<path d="M8.6487 2.11939C8.6487 2.38528 8.56985 2.6452 8.42213 2.86628C8.27441 3.08736 8.06445 3.25967 7.8188 3.36143C7.57315 3.46318 7.30284 3.4898 7.04206 3.43793C6.78127 3.38606 6.54173 3.25802 6.35372 3.07C6.1657 2.88199 6.03767 2.64245 5.98579 2.38167C5.93392 2.12088 5.96054 1.85058 6.0623 1.60493C6.16405 1.35927 6.33636 1.14931 6.55744 1.00159C6.77852 0.85387 7.03844 0.775025 7.30433 0.775025C7.4809 0.774941 7.65575 0.809658 7.8189 0.877189C7.98204 0.944721 8.13027 1.04374 8.25513 1.1686C8.37998 1.29345 8.479 1.44168 8.54653 1.60483C8.61406 1.76797 8.64878 1.94282 8.6487 2.11939Z" fill="url(#paint3_linear)"/>
<path d="M31.8866 11.1606C31.5173 11.8431 30.9394 12.3933 30.1527 12.811C29.3661 13.2288 28.3737 13.4377 27.1756 13.4377H24.7316V19.0365H21.8064V4.45459H27.1756C28.3038 4.45459 29.2647 4.64956 30.0585 5.03951C30.8523 5.42946 31.4478 5.96569 31.8449 6.6482C32.242 7.33071 32.4406 8.10365 32.4406 8.96701C32.4438 9.73322 32.2532 10.4878 31.8866 11.1606ZM28.8469 10.5232C29.2365 10.1548 29.4314 9.63603 29.4319 8.96701C29.4319 7.54592 28.6381 6.83558 27.0504 6.83601H24.7316V11.0772H27.0504C27.8582 11.0772 28.457 10.8925 28.8469 10.5232Z" fill="white"/>
<path d="M35.3658 18.6167C34.6404 18.217 34.0433 17.6197 33.6439 16.8942C33.2266 16.1518 33.0181 15.295 33.0186 14.3237C33.019 13.3524 33.2331 12.4958 33.661 11.7538C34.0737 11.0267 34.6821 10.4299 35.417 10.0313C36.1843 9.63166 37.0367 9.42297 37.9019 9.42297C38.767 9.42297 39.6194 9.63166 40.3867 10.0313C41.1207 10.4305 41.7284 11.0271 42.1408 11.7538C42.5687 12.4962 42.7828 13.3528 42.7832 14.3237C42.7837 15.2946 42.5636 16.1514 42.1231 16.8942C41.6994 17.6217 41.0826 18.2179 40.3411 18.6167C39.5928 19.0222 38.756 19.225 37.8307 19.225C36.9184 19.225 36.0968 19.0222 35.3658 18.6167ZM39.0587 16.817C39.4502 16.5969 39.7689 16.2673 39.9756 15.8685C40.2037 15.447 40.3179 14.9329 40.3184 14.3262C40.3184 13.4245 40.0812 12.7306 39.607 12.2445C39.3834 12.0091 39.1133 11.8227 38.8138 11.6973C38.5143 11.5719 38.192 11.5101 37.8674 11.5161C37.5452 11.5091 37.2252 11.5704 36.9284 11.6959C36.6317 11.8215 36.3648 12.0085 36.1455 12.2445C35.6818 12.7302 35.4499 13.4241 35.4499 14.3262C35.4499 15.2284 35.6755 15.9225 36.1265 16.4085C36.5776 16.8942 37.1467 17.137 37.8339 17.137C38.2629 17.1376 38.6848 17.0273 39.0587 16.817Z" fill="white"/>
<path d="M48.2702 11.7626V15.4644C48.2702 15.8543 48.3642 16.1363 48.5522 16.3104C48.7402 16.4846 49.0564 16.5716 49.5007 16.5716H50.8584V19.0378H49.022C46.5571 19.0378 45.3245 17.8401 45.3241 15.4448V11.7626H43.9456V9.3597H45.3241V5.92859H48.2702V9.3597H50.8628V11.7626H48.2702Z" fill="white"/>
<path d="M54.2439 7.36343C54.0773 7.2073 53.9456 7.01778 53.8573 6.80726C53.7691 6.59673 53.7263 6.36995 53.7317 6.14174C53.7263 5.91344 53.7692 5.68658 53.8574 5.47597C53.9457 5.26535 54.0774 5.07571 54.2439 4.91941C54.5845 4.59228 55.0126 4.42871 55.5282 4.42871C56.0437 4.42871 56.4714 4.59228 56.8112 4.91941C56.9777 5.07571 57.1093 5.26535 57.1976 5.47597C57.2859 5.68658 57.3287 5.91344 57.3234 6.14174C57.3288 6.36995 57.286 6.59673 57.1977 6.80726C57.1094 7.01778 56.9777 7.2073 56.8112 7.36343C56.4697 7.69099 56.0414 7.85476 55.5263 7.85476C55.0111 7.85476 54.5836 7.69099 54.2439 7.36343ZM56.9699 9.42298V19.0346H54.0453V9.42298H56.9699Z" fill="white"/>
<path d="M61.6588 18.6166C60.9334 18.217 60.3363 17.6197 59.9369 16.8941C59.5196 16.1518 59.3111 15.2949 59.3115 14.3236C59.3119 13.3524 59.5261 12.4957 59.954 11.7538C60.3669 11.0266 60.9755 10.4298 61.7106 10.0313C62.4778 9.63141 63.3301 9.42261 64.1951 9.42261C65.0602 9.42261 65.9125 9.63141 66.6796 10.0313C67.4148 10.4298 68.0234 11.0266 68.4363 11.7538C68.8646 12.4962 69.0787 13.3528 69.0787 14.3236C69.0787 15.2945 68.8589 16.1513 68.4192 16.8941C67.9953 17.6216 67.3786 18.2177 66.6373 18.6166C65.8886 19.0222 65.0518 19.225 64.1268 19.225C63.2125 19.225 62.3898 19.0222 61.6588 18.6166ZM65.3517 16.817C65.7432 16.5969 66.0619 16.2672 66.2686 15.8685C66.4971 15.4469 66.6113 14.9328 66.6113 14.3262C66.6113 13.4245 66.3742 12.7306 65.8999 12.2445C65.6766 12.0089 65.4066 11.8224 65.1072 11.697C64.8078 11.5716 64.4855 11.51 64.161 11.516C63.839 11.5088 63.5191 11.5697 63.2224 11.6948C62.9256 11.8199 62.6587 12.0064 62.4391 12.242C61.9754 12.7276 61.7435 13.4215 61.7435 14.3236C61.7435 15.2258 61.9691 15.9199 62.4201 16.406C62.8716 16.8916 63.4407 17.1344 64.1275 17.1344C64.5561 17.1357 64.9777 17.0264 65.3517 16.817Z" fill="white"/>
<path d="M78.9567 10.4923C79.6523 11.2051 80.0001 12.2002 80.0001 13.4776V19.0365H77.6054V13.8013C77.6054 13.0484 77.4171 12.4696 77.0407 12.0649C76.6642 11.6602 76.1512 11.4591 75.5015 11.4617C74.8401 11.4617 74.3184 11.6642 73.9365 12.0693C73.5546 12.4745 73.3634 13.0518 73.363 13.8013V19.0353H70.9683V9.56019H73.363V10.7401C73.6881 10.3252 74.1076 9.99399 74.5865 9.77392C75.098 9.53653 75.6561 9.41661 76.2199 9.42297C77.3488 9.42297 78.2611 9.7794 78.9567 10.4923Z" fill="white"/>
<defs>
<linearGradient id="paint0_linear" x1="3.48864" y1="11.9496" x2="11.6692" y2="17.6191" gradientUnits="userSpaceOnUse">
<stop stop-color="#724CF9"/>
<stop offset="1" stop-color="#8E6EFD"/>
</linearGradient>
<linearGradient id="paint1_linear" x1="5.40239" y1="12.5434" x2="8.85391" y2="15.5723" gradientUnits="userSpaceOnUse">
<stop stop-color="#FA198B"/>
<stop offset="1" stop-color="#E373AC"/>
</linearGradient>
<linearGradient id="paint2_linear" x1="4.80107" y1="5.65426" x2="9.78508" y2="9.46998" gradientUnits="userSpaceOnUse">
<stop stop-color="#724CF9"/>
<stop offset="1" stop-color="#8E6EFD"/>
</linearGradient>
<linearGradient id="paint3_linear" x1="6.60334" y1="1.40031" x2="8.47609" y2="2.22203" gradientUnits="userSpaceOnUse">
<stop stop-color="#FA198B"/>
<stop offset="1" stop-color="#E373AC"/>
</linearGradient>
</defs>
</svg>