<svg width="500" height="125" viewBox="0 0 500 125" fill="none" xmlns="http://www.w3.org/2000/svg">
<g clip-path="url(#clip0_1_283)">
<path fill-rule="evenodd" clip-rule="evenodd" d="M15.8086 61.2686V73.3975C15.8086 81.2887 18.9432 88.8562 24.5228 94.4356C30.1023 100.015 37.6699 103.15 45.5606 103.15C53.4512 103.15 61.0187 100.015 66.5981 94.4356C72.1781 88.8562 75.3125 81.2887 75.3125 73.3975V61.2686H91.1212V73.3975C91.1212 85.4812 86.3212 97.07 77.7769 105.614C69.2325 114.158 57.6439 118.958 45.5606 118.958C33.4771 118.958 21.8886 114.158 13.3444 105.614C4.80012 97.07 0 85.4812 0 73.3975V61.2686H15.8086Z" fill="url(#paint0_linear_1_283)"/>
<path fill-rule="evenodd" clip-rule="evenodd" d="M38.5733 73.0506C38.5733 74.9544 39.3294 76.78 40.6754 78.1256C42.0214 79.4719 43.8469 80.2281 45.7504 80.2281C47.6539 80.2281 49.4794 79.4719 50.8254 78.1256C52.1713 76.78 52.9275 74.9544 52.9275 73.0506H68.7363C68.7363 79.1469 66.3144 84.9931 62.0038 89.3044C57.6931 93.615 51.8466 96.0362 45.7504 96.0362C39.6542 96.0362 33.8077 93.615 29.497 89.3044C25.1863 84.9931 22.7646 79.1469 22.7646 73.0506H38.5733Z" fill="url(#paint1_linear_1_283)"/>
<path fill-rule="evenodd" clip-rule="evenodd" d="M31.7368 40.5976C35.3109 37.6137 37.6087 33.2937 37.6087 27.4109H53.4174V28.146C53.4174 33.991 55.6797 38.053 59.1558 40.8269C62.8275 43.7571 68.3938 45.6382 75.2569 45.6382V61.4469C65.6956 61.4469 56.3891 58.8443 49.2953 53.1835C47.8509 52.0308 46.52 50.7674 45.3144 49.4002C44.2543 50.5895 43.103 51.7021 41.8682 52.7331C34.8196 58.6177 25.4901 61.5022 15.773 61.5022V45.6936C22.4811 45.6936 28.0217 43.6992 31.7368 40.5976Z" fill="url(#paint2_linear_1_283)"/>
<path d="M54.0544 13.2462C54.0544 14.908 53.5616 16.5325 52.6383 17.9142C51.7151 19.296 50.4028 20.3729 48.8675 21.0089C47.3322 21.6449 45.6428 21.8112 44.0129 21.4871C42.3829 21.1629 40.8858 20.3626 39.7108 19.1875C38.5356 18.0124 37.7354 16.5153 37.4112 14.8854C37.087 13.2555 37.2534 11.5661 37.8894 10.0308C38.5253 8.49544 39.6023 7.18318 40.984 6.25993C42.3658 5.33668 43.9903 4.8439 45.6521 4.8439C46.7556 4.84338 47.8484 5.06036 48.8681 5.48243C49.8878 5.9045 50.8142 6.52337 51.5946 7.30375C52.3749 8.08406 52.9938 9.0105 53.4158 10.0302C53.8379 11.0498 54.0549 12.1426 54.0544 13.2462Z" fill="url(#paint3_linear_1_283)"/>
<path d="M199.291 69.7537C196.983 74.0194 193.371 77.4581 188.454 80.0687C183.538 82.68 177.336 83.9856 169.847 83.9856H154.572V118.978H136.29V27.8412H169.847C176.899 27.8412 182.904 29.0597 187.866 31.4969C192.827 33.9341 196.549 37.2856 199.031 41.5512C201.512 45.8169 202.754 50.6478 202.754 56.0438C202.774 60.8326 201.582 65.5487 199.291 69.7537ZM180.293 65.77C182.728 63.4675 183.946 60.2252 183.949 56.0438C183.949 47.162 178.988 42.7224 169.065 42.7251H154.572V69.2325H169.065C174.114 69.2325 177.856 68.0781 180.293 65.77Z" fill="#433C68"/>
<path d="M221.036 116.354C216.503 113.856 212.771 110.123 210.274 105.589C207.666 100.949 206.363 95.5937 206.366 89.5231C206.369 83.4525 207.707 78.0987 210.381 73.4612C212.961 68.9169 216.763 65.1869 221.356 62.6956C226.152 60.1979 231.479 58.8936 236.887 58.8936C242.294 58.8936 247.621 60.1979 252.417 62.6956C257.004 65.1906 260.803 68.9194 263.38 73.4612C266.054 78.1012 267.393 83.455 267.395 89.5231C267.398 95.5912 266.023 100.946 263.269 105.589C260.621 110.136 256.766 113.862 252.132 116.354C247.455 118.889 242.225 120.156 236.442 120.156C230.74 120.156 225.605 118.889 221.036 116.354ZM244.117 105.106C246.564 103.731 248.556 101.671 249.848 99.1781C251.273 96.5437 251.987 93.3306 251.99 89.5387C251.99 83.9031 250.508 79.5662 247.544 76.5281C246.146 75.0569 244.458 73.8919 242.586 73.1081C240.714 72.3244 238.7 71.9381 236.671 71.9756C234.658 71.9319 232.658 72.315 230.803 73.0994C228.948 73.8844 227.28 75.0531 225.909 76.5281C223.011 79.5637 221.562 83.9006 221.562 89.5387C221.562 95.1775 222.972 99.5156 225.791 102.553C228.61 105.589 232.167 107.106 236.462 107.106C239.143 107.11 241.78 106.421 244.117 105.106Z" fill="#433C68"/>
<path d="M301.689 73.5162V96.6525C301.689 99.0894 302.276 100.852 303.451 101.94C304.626 103.029 306.603 103.572 309.379 103.572H317.865V118.986H306.388C290.982 118.986 283.278 111.501 283.276 96.53V73.5162H274.66V58.4981H283.276V37.0537H301.689V58.4981H317.893V73.5162H301.689Z" fill="#433C68"/>
<path d="M339.024 46.0214C337.983 45.0456 337.16 43.8611 336.608 42.5454C336.057 41.2296 335.789 39.8122 335.823 38.3859C335.789 36.959 336.058 35.5411 336.609 34.2248C337.161 32.9084 337.984 31.7232 339.024 30.7463C341.153 28.7018 343.829 27.6794 347.051 27.6794C350.273 27.6794 352.946 28.7018 355.07 30.7463C356.111 31.7232 356.933 32.9084 357.485 34.2248C358.037 35.5411 358.304 36.959 358.271 38.3859C358.305 39.8122 358.038 41.2296 357.486 42.5454C356.934 43.8611 356.111 45.0456 355.07 46.0214C352.936 48.0687 350.259 49.0923 347.039 49.0923C343.819 49.0923 341.148 48.0687 339.024 46.0214ZM356.062 58.8936V118.966H337.783V58.8936H356.062Z" fill="#433C68"/>
<path d="M385.368 116.354C380.834 113.856 377.102 110.123 374.606 105.588C371.998 100.949 370.694 95.5931 370.697 89.5225C370.699 83.4525 372.038 78.0981 374.713 73.4613C377.293 68.9163 381.097 65.1863 385.691 62.6956C390.486 60.1963 395.813 58.8913 401.219 58.8913C406.626 58.8913 411.953 60.1963 416.748 62.6956C421.343 65.1863 425.146 68.9163 427.727 73.4613C430.404 78.1013 431.742 83.455 431.742 89.5225C431.742 95.5906 430.368 100.946 427.62 105.588C424.971 110.135 421.116 113.861 416.483 116.354C411.804 118.889 406.574 120.156 400.793 120.156C395.078 120.156 389.936 118.889 385.368 116.354ZM408.448 105.106C410.895 103.731 412.887 101.67 414.179 99.1781C415.607 96.5431 416.321 93.33 416.321 89.5388C416.321 83.9031 414.839 79.5663 411.874 76.5281C410.479 75.0556 408.791 73.89 406.92 73.1063C405.049 72.3225 403.034 71.9375 401.006 71.975C398.994 71.93 396.994 72.3106 395.14 73.0925C393.285 73.8744 391.617 75.04 390.244 76.5125C387.346 79.5475 385.897 83.8844 385.897 89.5225C385.897 95.1613 387.307 99.4994 390.126 102.538C392.948 105.573 396.504 107.09 400.797 107.09C403.476 107.098 406.111 106.415 408.448 105.106Z" fill="#433C68"/>
<path d="M493.479 65.5769C497.827 70.0319 500.001 76.2512 500.001 84.235V118.978H485.034V86.2581C485.034 81.5525 483.857 77.935 481.504 75.4056C479.151 72.8763 475.945 71.6194 471.884 71.6356C467.751 71.6356 464.49 72.9012 462.103 75.4331C459.716 77.9656 458.521 81.5737 458.519 86.2581V118.971H443.552V59.7512H458.519V67.1256C460.551 64.5325 463.173 62.4624 466.166 61.087C469.363 59.6033 472.851 58.8538 476.374 58.8936C483.43 58.8936 489.132 61.1213 493.479 65.5769Z" fill="#433C68"/>
</g>
<defs>
<linearGradient id="paint0_linear_1_283" x1="21.804" y1="74.685" x2="72.9325" y2="110.119" gradientUnits="userSpaceOnUse">
<stop stop-color="#724CF9"/>
<stop offset="1" stop-color="#8E6EFD"/>
</linearGradient>
<linearGradient id="paint1_linear_1_283" x1="33.765" y1="78.3962" x2="55.337" y2="97.3269" gradientUnits="userSpaceOnUse">
<stop stop-color="#FA198B"/>
<stop offset="1" stop-color="#E373AC"/>
</linearGradient>
<linearGradient id="paint2_linear_1_283" x1="30.0067" y1="35.3391" x2="61.1568" y2="59.1874" gradientUnits="userSpaceOnUse">
<stop stop-color="#724CF9"/>
<stop offset="1" stop-color="#8E6EFD"/>
</linearGradient>
<linearGradient id="paint3_linear_1_283" x1="41.2709" y1="8.75194" x2="52.9756" y2="13.8877" gradientUnits="userSpaceOnUse">
<stop stop-color="#FA198B"/>
<stop offset="1" stop-color="#E373AC"/>
</linearGradient>
<clipPath id="clip0_1_283">
<rect width="500" height="125" fill="white"/>
</clipPath>
</defs>
</svg>
